<?xml version="1.0" encoding="UTF-8"?>
<svg id="Layer_1" xmlns="http://www.w3.org/2000/svg" version="1.1" viewBox="0 0 70 70">
  <!-- Generator: Adobe Illustrator 29.8.1, SVG Export Plug-In . SVG Version: 2.1.1 Build 2)  -->
  <defs>
    <style>
      .st0 {
        fill: #340855;
      }

      .st1 {
        fill: #fff;
      }

      .st2 {
        fill: #fabc13;
      }
    </style>
  </defs>
  <path class="st0" d="M38.97,33.84c.09.07.16.12.21.17t0,0c-.07-.06-.14-.11-.22-.17ZM38.97,33.84c.09.07.16.12.21.17t0,0c-.07-.06-.14-.11-.22-.17ZM38.97,33.84c.09.07.16.12.21.17t0,0c-.07-.06-.14-.11-.22-.17ZM38.97,33.84c.09.07.16.12.21.17t0,0c-.07-.06-.14-.11-.22-.17ZM38.97,33.84c.09.07.16.12.21.17t0,0c-.07-.06-.14-.11-.22-.17ZM38.97,33.84c.09.07.16.12.21.17t0,0c-.07-.06-.14-.11-.22-.17ZM38.97,33.84c.09.07.16.12.21.17t0,0c-.07-.06-.14-.11-.22-.17ZM38.97,33.84c.09.07.16.12.21.17t0,0c-.07-.06-.14-.11-.22-.17ZM38.97,33.84c.09.07.16.12.21.17t0,0c-.07-.06-.14-.11-.22-.17ZM38.97,33.84c.09.07.16.12.21.17t0,0c-.07-.06-.14-.11-.22-.17ZM38.97,33.84c.09.07.16.12.21.17t0,0c-.07-.06-.14-.11-.22-.17ZM38.97,33.84c.09.07.16.12.21.17t0,0c-.07-.06-.14-.11-.22-.17ZM38.97,33.84c.09.07.16.12.21.17t0,0c-.07-.06-.14-.11-.22-.17ZM38.97,33.84c.09.07.16.12.21.17t0,0c-.07-.06-.14-.11-.22-.17ZM38.97,33.84c.09.07.16.12.21.17t0,0c-.07-.06-.14-.11-.22-.17ZM38.97,33.84c.09.07.16.12.21.17t0,0c-.07-.06-.14-.11-.22-.17ZM38.97,33.84c.09.07.16.12.21.17t0,0c-.07-.06-.14-.11-.22-.17ZM38.97,33.84c.09.07.16.12.21.17t0,0c-.07-.06-.14-.11-.22-.17ZM54.48,23.98c-.19-4.72-4.43-9.19-9.23-9.15h-.16c-1.89,0-3.78,0-5.67.01h0s0,0,0,0c0,0,0,0,0,0,0,0-.01,0-.02,0,0,0,0,0-.01,0,0,0-.02,0-.03,0,0,0-.02,0-.03,0-.02,0-.04,0-.06,0h-.12s-.04,0-.06,0c-.01,0-.02,0-.03,0h-.06s-.02,0-.03,0c0,0,0,0,0,0h0s0,0,0,0,0,0,0,0h0s0,0,0,0c0,0,0,0,0,0h0s0,0,0,0h0s0,0,0,0h0s0,0,0,0h0s0,0,0,0t0,0s0,0,0,0h0s0,0,0,0c0,0,0,0,0,0h0s0,0,0,0c0,0,0,0,0,0h0s0,0,0,0c0,0,0,0,0,0h0s0,0,0,0t0,0h0s0,0,0,0h0s0,0,0,0,0,0,0,0c0,0,0,0,0,0h0s0,0,0,0h0s0,0,0,0,0,0,0,0c0,0,0,0,0,0h0s0,0,0,0t0,0h0s0,0,0,0t0,0h0s0,0,0,0t0,0h0s0,0,0,0c0,0,0,0,0,0,0,0,0,0,0,0,0,0,0,0,0,0h0s0,0,0,0h0s0,0,0,0h0s0,0,0,0t0,0h0s0,0,0,0h0s0,0,0,0c0,0,0,0,0,0h0s0,0,0,0c0,0,0,0,0,0s0,0,0,0c0,0,0,0,0,0h0s0,0,0,0c0,0,0,0,0,0s0,0,0,0c0,0,0,0,0,0s0,0,0,0c0,0,0,0,0,0t0,0s0,0,0,0h0s0,0,0,0c0,0,0,0,0,0h0s0,0,0,0c0,0,0,0,0,0h0s0,0,0,0c0,0,0,0,0,0h0s0,0,0,0c0,0,0,0,0,0,0,0,0,0,0,0,0,0,0,0,0,0,0,0,0,0,0,0h0s0,0,0,0,0,0,0,0c0,0,0,0,0,0s0,0,0,0c0,0,0,0,0,0h0s0,0,0,0c0,0,0,0,0,0,0,0,0,0,0,0,0,0,0,0,0,0,0,0,0,0,0,0,0,0,0,0,0,0,0,0,0,0,0,0t0,0h0s0,0,0,0c0,0,0,0,0,0,0,0,0,0,0,0,0,0,0,0,0,0h0s0,0,0,0c0,0,0,0,0,0h0s0,0,0,0,0,0,0,0c0,0,0,0,0,0s0,0,0,0c0,0,0,0,0,0h0s0,0,0,0h0s0,0,0,0c-3.04,0-6.07.03-9.09.06h-.05s0,0-.01,0c-1.98.02-3.96.04-5.93.07-4.77.36-7.8,5.16-8.08,9.58-.46,7.2.2,15.08.19,22.31.71,4.09,4.06,7.44,8.17,8.04.02,0,.04,0,.06,0h.02c1.32.03,2.64.05,3.96.07h.09s0,0,0,0h.03s0,0,0,0c0,0,0,0,0,0h0s0,0,0,0h0s0,0,0,0h0s0,0,0,0h0s0,0,0,0h0s0,0,0,0c1.41.02,2.82.04,4.22.05h.07c4.23.04,8.46.05,12.7.03h.02c5.28-.32,9.05-4.37,9.38-9.58.44-7-.35-14.44,0-21.49ZM27.72,42.35c.52-.8,1.01-1.65,1.24-2.59.22-.06.24.06.36.14,1.29.89,2.76,3.01,3.89,4.18,1.49,1.55,3.09,2.92,4.83,4.18-2.9-.88-5.7-2.41-8.18-4.15-.35-.25-2.21-1.53-2.15-1.77ZM52.02,48.91c-1.22,1.02-7.39,0-9.04-.46-6.44-1.82-7.68-5.41-12.22-9.26-2.51-2.13-6.05-3.34-8.82-5.31-.86-.61-2.01-1.31-2.35-2.34-.56.95-1.61,1.94-2.38,2.74-.44.04-.07-.16-.07-.21v-10.95c0-2.77,3.83-6.55,6.62-6.78,7.03.3,14.75-.61,21.7-.07,3.43.27,7.56,3.67,7.56,7.28v19.24s0,0-.01,0c.02.18.02.4-.01.67.34.92-.29,4.87-.99,5.45ZM39.19,34s0,0,0,0c-.07-.06-.14-.11-.22-.17.09.07.16.12.21.17ZM38.97,33.84c.09.07.16.12.21.17t0,0c-.07-.06-.14-.11-.22-.17ZM38.97,33.84c.09.07.16.12.21.17t0,0c-.07-.06-.14-.11-.22-.17ZM38.97,33.84c.09.07.16.12.21.17t0,0c-.07-.06-.14-.11-.22-.17ZM38.97,33.84c.09.07.16.12.21.17t0,0c-.07-.06-.14-.11-.22-.17ZM38.97,33.84c.09.07.16.12.21.17t0,0c-.07-.06-.14-.11-.22-.17ZM38.97,33.84c.09.07.16.12.21.17t0,0c-.07-.06-.14-.11-.22-.17ZM38.97,33.84c.09.07.16.12.21.17t0,0c-.07-.06-.14-.11-.22-.17ZM38.97,33.84c.09.07.16.12.21.17t0,0c-.07-.06-.14-.11-.22-.17ZM38.97,33.84c.09.07.16.12.21.17t0,0c-.07-.06-.14-.11-.22-.17ZM38.97,33.84c.09.07.16.12.21.17t0,0c-.07-.06-.14-.11-.22-.17ZM38.97,33.84c.09.07.16.12.21.17t0,0c-.07-.06-.14-.11-.22-.17ZM38.97,33.84c.09.07.16.12.21.17t0,0c-.07-.06-.14-.11-.22-.17ZM38.97,33.84c.09.07.16.12.21.17t0,0c-.07-.06-.14-.11-.22-.17ZM38.97,33.84c.09.07.16.12.21.17t0,0c-.07-.06-.14-.11-.22-.17ZM38.97,33.84c.09.07.16.12.21.17t0,0c-.07-.06-.14-.11-.22-.17ZM38.97,33.84c.09.07.16.12.21.17t0,0c-.07-.06-.14-.11-.22-.17Z"/>
  <path class="st0" d="M45.1,55.04c-6.71.4-13.8-.31-20.55,0-.23.06-.47-.13-.64-.15l21.19.14Z"/>
  <path class="st0" d="M45.24,14.83c-6.98.06-14.3-.12-21.27.3-.33.02-.33-.15-.35-.15l21.62-.14Z"/>
  <path class="st0" d="M39.19,34s0,0,0,0c-.06-.04-.13-.1-.21-.17.08.05.15.11.22.17Z"/>
  <path class="st0" d="M39.26,34.06s-.04-.03-.07-.06t0,0s.05.04.07.06Z"/>
  <path class="st0" d="M39.19,34s0,0,0,0c-.06-.04-.13-.1-.21-.17.08.05.15.11.22.17Z"/>
  <path class="st2" d="M52.02,48.91c-1.22,1.02-7.39,0-9.04-.46-6.44-1.82-7.68-5.41-12.22-9.26-2.51-2.13-6.05-3.34-8.82-5.31-.86-.61-2.01-1.31-2.35-2.34,0,0,0,0,0,0t0,0s0,0,0-.01c.14-.28,2.28-4.42,2.86-5.08.69-.79,4.07-4.4,5.19-4.87,0,0,3.71,4.44,4.5,5.39.65.79,3.27,3.74,4.76,5.21.36.35.65.62.84.75.52.36.92.66,1.19.87.01.01.03.02.04.03.09.07.16.12.21.17.03.02.05.04.07.06-.02-.02-.05-.04-.07-.06.79-1.78,1.89-3.96,3.75-4.76,1.25,5.67,4.66,11.1,10.08,13.54.02.18.02.4-.01.67.34.92-.29,4.87-.99,5.45Z"/>
  <path class="st1" d="M39.26,34.06s-.04-.03-.07-.06c-.06-.04-.13-.1-.21-.17.08.05.15.11.22.17.02.02.05.04.07.06Z"/>
</svg>